<?xml version="1.0" encoding="UTF-8" standalone="no"?>
<!-- Generator: Adobe Illustrator 16.0.0, SVG Export Plug-In . SVG Version: 6.00 Build 0)  -->

<svg
   xmlns:dc="http://purl.org/dc/elements/1.1/"
   xmlns:cc="http://creativecommons.org/ns#"
   xmlns:rdf="http://www.w3.org/1999/02/22-rdf-syntax-ns#"
   xmlns:svg="http://www.w3.org/2000/svg"
   xmlns="http://www.w3.org/2000/svg"
   xmlns:sodipodi="http://sodipodi.sourceforge.net/DTD/sodipodi-0.dtd"
   xmlns:inkscape="http://www.inkscape.org/namespaces/inkscape"
   version="1.1"
   id="Capa_1"
   x="0px"
   y="0px"
   width="64px"
   height="64px"
   viewBox="0 0 369.486 369.486"
   style="enable-background:new 0 0 369.486 369.486;"
   xml:space="preserve"
   inkscape:version="0.91 r13725"
   sodipodi:docname="heart.svg"><metadata
     id="metadata3377"><rdf:RDF><cc:Work
         rdf:about=""><dc:format>image/svg+xml</dc:format><dc:type
           rdf:resource="http://purl.org/dc/dcmitype/StillImage" /></cc:Work></rdf:RDF></metadata><defs
     id="defs3375" /><sodipodi:namedview
     pagecolor="#ffffff"
     bordercolor="#666666"
     borderopacity="1"
     objecttolerance="10"
     gridtolerance="10"
     guidetolerance="10"
     inkscape:pageopacity="0"
     inkscape:pageshadow="2"
     inkscape:window-width="1368"
     inkscape:window-height="849"
     id="namedview3373"
     showgrid="false"
     inkscape:zoom="10.625"
     inkscape:cx="31.717647"
     inkscape:cy="32"
     inkscape:window-x="-8"
     inkscape:window-y="-8"
     inkscape:window-maximized="1"
     inkscape:current-layer="g3339" /><g
     id="g3337"><g
       id="g3339"><path
         d="m 184.74327,264.95547 c -1.61625,0 -3.15908,-0.67336 -4.25858,-1.8579 l -68.62333,-73.96282 c -0.0177,-0.019 -0.0353,-0.0381 -0.0525,-0.0572 -8.32988,-9.22304 -12.91701,-21.44578 -12.91701,-34.41715 0,-12.97184 4.58713,-25.19411 12.91701,-34.41669 l 1.0428,-1.15433 c 8.47905,-9.38756 19.80025,-14.55789 31.87846,-14.55789 12.07821,0 23.39987,5.17033 31.87939,14.55835 l 8.13377,9.00603 8.13377,-9.00557 c 8.47905,-9.38801 19.80025,-14.55835 31.87892,-14.55835 12.07868,0 23.39988,5.17034 31.87939,14.55882 l 1.04141,1.15154 c 8.33127,9.22491 12.9184,21.44718 12.9184,34.41855 0,12.97138 -4.58759,25.19411 -12.91701,34.41669 -0.0172,0.02 -0.0349,0.039 -0.0525,0.0581 l -68.62379,73.96282 c -1.0995,1.18315 -2.64233,1.85697 -4.25858,1.85697 z m -64.3378,-83.69333 64.3378,69.34317 64.3378,-69.34363 c 13.23719,-14.68615 13.22882,-38.55677 -0.0256,-53.23176 l -1.04048,-1.15155 c -6.24985,-6.91995 -14.51002,-10.73009 -23.25907,-10.73009 -8.74951,0 -17.00968,3.81014 -23.25767,10.72777 l -12.44393,13.77857 c -1.10089,1.2194 -2.66742,1.91506 -4.31016,1.91506 -1.64274,0 -3.20927,-0.69566 -4.31063,-1.91506 l -12.4444,-13.77764 c -6.24845,-6.9181 -14.50816,-10.72823 -23.25767,-10.72823 -8.74951,0 -17.00968,3.80967 -23.25767,10.72777 l -1.0428,1.15433 c -13.25439,14.67499 -13.26322,38.54561 -0.0256,53.23129 z"
         id="path3341"
         inkscape:connector-curvature="0"
         style="fill:#ffffff" /></g></g><g
     id="g3343" /><g
     id="g3345" /><g
     id="g3347" /><g
     id="g3349" /><g
     id="g3351" /><g
     id="g3353" /><g
     id="g3355" /><g
     id="g3357" /><g
     id="g3359" /><g
     id="g3361" /><g
     id="g3363" /><g
     id="g3365" /><g
     id="g3367" /><g
     id="g3369" /><g
     id="g3371" /></svg>